<svg xmlns="http://www.w3.org/2000/svg" viewBox="0 0 348 348" fill="none"><path d="M5.079 5.776h336.913v337.67H5.08z" stroke-width="2" stroke="#000"/><path d="M282.734 40.554c0-8.376 6.966-15.165 15.56-15.165 4.126 0 8.084 1.597 11.001 4.441 2.918 2.844 4.558 6.702 4.558 10.724 0 8.376-6.966 15.165-15.56 15.165-8.593 0-15.559-6.79-15.559-15.165z" stroke-width="2" stroke="#000"/><circle cx="173.482" cy="91.662" r="44.908" fill="none" stroke="#000" stroke-width="2"/><path fill="none" stroke="#000" stroke-width="2" d="M43.063 38.141h35.065v35.065H43.063z"/><g stroke="#000"><path fill="none" stroke-width="2" d="M61.518 164.869h35.065v35.065H61.518zM61.518 199.934h35.065v77.513H61.518zM61.518 277.447h35.065v35.065H61.518z"/><path d="M64.594 197.474c.462-.923 14.15-27.991 14.15-27.991l15.379 28.452-14.303-11.842zM93.5 281.675c-.46.923-14.149 27.991-14.149 27.991-4.95-9.22-7.52-14.869-15.38-28.452l14.304 11.842z"/></g><g stroke="#000"><path fill="none" stroke-width="2" d="M108.58 165.484h35.064v35.065H108.58zM108.58 200.55h35.064v77.512H108.58zM108.58 278.062h35.064v35.065H108.58z"/><path d="M111.656 198.089c.461-.923 14.149-27.99 14.149-27.99l15.38 28.451-14.304-11.842zM140.562 282.29c-.461.923-14.15 27.991-14.15 27.991-4.95-9.22-7.52-14.869-15.379-28.452l14.303 11.842z"/></g><g stroke="#000"><path fill="none" stroke-width="2" d="M155.949 164.869h35.065v35.065h-35.065zM155.949 199.934h35.065v77.513h-35.065zM155.949 277.447h35.065v35.065h-35.065z"/><path d="M159.025 197.474c.461-.923 14.149-27.991 14.149-27.991l15.38 28.452-14.303-11.842zM187.931 281.675c-.461.923-14.15 27.991-14.15 27.991-4.95-9.22-7.52-14.869-15.379-28.452l14.303 11.842z"/></g><g stroke="#000"><path fill="none" stroke-width="2" d="M202.702 166.1h35.065v35.064h-35.065zM202.702 201.164h35.065v77.513h-35.065zM202.702 278.677h35.065v35.065h-35.065z"/><path d="M205.779 198.704c.461-.923 14.149-27.99 14.149-27.99l15.38 28.451-14.304-11.842zM234.685 282.906c-.461.922-14.15 27.99-14.15 27.99-4.95-9.22-7.52-14.868-15.379-28.452l14.303 11.843z"/></g><g stroke="#000"><path fill="none" stroke-width="2" d="M250.072 165.484h35.065v35.065h-35.065zM250.072 200.55h35.065v77.512h-35.065zM250.072 278.062h35.065v35.065h-35.065z"/><path d="M253.148 198.089c.461-.923 14.149-27.99 14.149-27.99l15.38 28.451-14.303-11.842zM282.054 282.29c-.461.923-14.15 27.991-14.15 27.991-4.95-9.22-7.52-14.869-15.379-28.452l14.303 11.842z"/></g><path d="M161.385 62.64v50.895L201.84 88.74z" stroke="#000" stroke-width="2"/></svg>